<mxfile host="65bd71144e">
    <diagram id="CGE-V-YyImQBMw3J6Rf1" name="Page-1">
        <mxGraphModel dx="1149" dy="859" grid="0" gridSize="13" guides="1" tooltips="1" connect="1" arrows="1" fold="1" page="0" pageScale="1" pageWidth="827" pageHeight="1169" math="0" shadow="0">
            <root>
                <mxCell id="0"/>
                <mxCell id="1" parent="0"/>
                <mxCell id="2" value="Customer" style="whiteSpace=wrap;html=1;align=center;rounded=1;" parent="1" vertex="1">
                    <mxGeometry x="-218" y="728" width="100" height="40" as="geometry"/>
                </mxCell>
                <mxCell id="238" style="edgeStyle=none;html=1;entryX=0.5;entryY=1;entryDx=0;entryDy=0;strokeColor=default;fontSize=10;endArrow=none;endFill=0;exitX=0.5;exitY=0;exitDx=0;exitDy=0;" edge="1" parent="1" source="3" target="237">
                    <mxGeometry relative="1" as="geometry">
                        <mxPoint x="312" y="360" as="sourcePoint"/>
                    </mxGeometry>
                </mxCell>
                <mxCell id="3" value="Product" style="whiteSpace=wrap;html=1;align=center;rounded=1;arcSize=28;" parent="1" vertex="1">
                    <mxGeometry x="253" y="390" width="100" height="40" as="geometry"/>
                </mxCell>
                <mxCell id="179" style="edgeStyle=none;html=1;exitX=0.5;exitY=1;exitDx=0;exitDy=0;entryX=1;entryY=0.5;entryDx=0;entryDy=0;strokeColor=default;endArrow=none;endFill=0;" edge="1" parent="1" source="4" target="177">
                    <mxGeometry relative="1" as="geometry">
                        <mxPoint x="208" y="784" as="sourcePoint"/>
                    </mxGeometry>
                </mxCell>
                <mxCell id="4" value="Orders" style="whiteSpace=wrap;html=1;align=center;rounded=1;" parent="1" vertex="1">
                    <mxGeometry x="253" y="728" width="100" height="40" as="geometry"/>
                </mxCell>
                <mxCell id="234" style="edgeStyle=none;html=1;exitX=0.5;exitY=0;exitDx=0;exitDy=0;entryX=0.5;entryY=1;entryDx=0;entryDy=0;strokeColor=default;fontSize=10;endArrow=none;endFill=0;" edge="1" parent="1" source="6" target="231">
                    <mxGeometry relative="1" as="geometry"/>
                </mxCell>
                <mxCell id="235" style="edgeStyle=none;html=1;exitX=0.5;exitY=0;exitDx=0;exitDy=0;entryX=0;entryY=1;entryDx=0;entryDy=0;strokeColor=default;fontSize=10;endArrow=none;endFill=0;" edge="1" parent="1" source="6" target="232">
                    <mxGeometry relative="1" as="geometry"/>
                </mxCell>
                <mxCell id="236" style="edgeStyle=none;html=1;exitX=0.5;exitY=0;exitDx=0;exitDy=0;entryX=0;entryY=1;entryDx=0;entryDy=0;strokeColor=default;fontSize=10;endArrow=none;endFill=0;" edge="1" parent="1" source="6" target="233">
                    <mxGeometry relative="1" as="geometry"/>
                </mxCell>
                <mxCell id="6" value="Payment" style="whiteSpace=wrap;html=1;align=center;rounded=1;" parent="1" vertex="1">
                    <mxGeometry x="777" y="729" width="100" height="40" as="geometry"/>
                </mxCell>
                <mxCell id="214" style="edgeStyle=none;html=1;exitX=0.5;exitY=0;exitDx=0;exitDy=0;entryX=0.5;entryY=1;entryDx=0;entryDy=0;strokeColor=default;endArrow=none;endFill=0;" edge="1" parent="1" source="7" target="211">
                    <mxGeometry relative="1" as="geometry"/>
                </mxCell>
                <mxCell id="7" value="Supplier" style="whiteSpace=wrap;html=1;align=center;rounded=1;" parent="1" vertex="1">
                    <mxGeometry x="253" y="69" width="100" height="40" as="geometry"/>
                </mxCell>
                <mxCell id="8" value="Category" style="whiteSpace=wrap;html=1;align=center;rounded=1;" parent="1" vertex="1">
                    <mxGeometry x="852.9" y="390" width="100" height="40" as="geometry"/>
                </mxCell>
                <mxCell id="9" value="Ad" style="whiteSpace=wrap;html=1;align=center;rounded=1;" parent="1" vertex="1">
                    <mxGeometry x="-231" y="390.5" width="100" height="40" as="geometry"/>
                </mxCell>
                <mxCell id="10" value="belongs to" style="shape=rhombus;perimeter=rhombusPerimeter;whiteSpace=wrap;html=1;align=center;rounded=1;" parent="1" vertex="1">
                    <mxGeometry x="579" y="380" width="120" height="60" as="geometry"/>
                </mxCell>
                <mxCell id="21" value="" style="endArrow=none;html=1;rounded=1;entryX=0;entryY=0.5;entryDx=0;entryDy=0;exitX=0.953;exitY=0.499;exitDx=0;exitDy=0;exitPerimeter=0;" parent="1" source="10" target="8" edge="1">
                    <mxGeometry relative="1" as="geometry">
                        <mxPoint x="793" y="344" as="sourcePoint"/>
                        <mxPoint x="950" y="440" as="targetPoint"/>
                    </mxGeometry>
                </mxCell>
                <mxCell id="22" value="1" style="resizable=0;html=1;align=right;verticalAlign=bottom;rounded=1;" parent="21" connectable="0" vertex="1">
                    <mxGeometry x="1" relative="1" as="geometry">
                        <mxPoint x="-5" as="offset"/>
                    </mxGeometry>
                </mxCell>
                <mxCell id="23" value="" style="endArrow=none;html=1;rounded=1;exitX=0;exitY=0.5;exitDx=0;exitDy=0;entryX=1;entryY=0.5;entryDx=0;entryDy=0;" parent="1" source="10" target="3" edge="1">
                    <mxGeometry relative="1" as="geometry">
                        <mxPoint x="403" y="422" as="sourcePoint"/>
                        <mxPoint x="364" y="422" as="targetPoint"/>
                    </mxGeometry>
                </mxCell>
                <mxCell id="24" value="N" style="resizable=0;html=1;align=right;verticalAlign=bottom;rounded=1;" parent="23" connectable="0" vertex="1">
                    <mxGeometry x="1" relative="1" as="geometry">
                        <mxPoint x="16" as="offset"/>
                    </mxGeometry>
                </mxCell>
                <mxCell id="25" value="cat_id" style="ellipse;whiteSpace=wrap;html=1;align=center;fontStyle=4;rounded=1;fillColor=#60a917;fontColor=#ffffff;strokeColor=#2D7600;" parent="1" vertex="1">
                    <mxGeometry x="746" y="336.5" width="100" height="40" as="geometry"/>
                </mxCell>
                <mxCell id="28" value="" style="endArrow=none;html=1;rounded=0;entryX=0.5;entryY=0;entryDx=0;entryDy=0;exitX=1;exitY=0.5;exitDx=0;exitDy=0;" parent="1" source="25" target="8" edge="1">
                    <mxGeometry relative="1" as="geometry">
                        <mxPoint x="590.9" y="474" as="sourcePoint"/>
                        <mxPoint x="750.9" y="474" as="targetPoint"/>
                    </mxGeometry>
                </mxCell>
                <mxCell id="32" value="&lt;u&gt;cat_id&lt;/u&gt;" style="ellipse;whiteSpace=wrap;html=1;align=center;rounded=1;fillColor=#a20025;fontColor=#ffffff;strokeColor=#6F0000;" parent="1" vertex="1">
                    <mxGeometry x="192" y="237" width="100" height="40" as="geometry"/>
                </mxCell>
                <mxCell id="35" value="product_name" style="ellipse;whiteSpace=wrap;html=1;align=center;fontStyle=0;rounded=1;fillColor=#1ba1e2;fontColor=#ffffff;strokeColor=#006EAF;" parent="1" vertex="1">
                    <mxGeometry x="403" y="263" width="100" height="40" as="geometry"/>
                </mxCell>
                <mxCell id="36" value="" style="endArrow=none;html=1;rounded=0;exitX=0;exitY=1;exitDx=0;exitDy=0;entryX=0.5;entryY=0;entryDx=0;entryDy=0;" parent="1" source="35" target="3" edge="1">
                    <mxGeometry relative="1" as="geometry">
                        <mxPoint x="346" y="422" as="sourcePoint"/>
                        <mxPoint x="219" y="410" as="targetPoint"/>
                    </mxGeometry>
                </mxCell>
                <mxCell id="41" value="" style="endArrow=none;html=1;rounded=0;exitX=0.5;exitY=1;exitDx=0;exitDy=0;entryX=0.5;entryY=0;entryDx=0;entryDy=0;" parent="1" source="32" target="3" edge="1">
                    <mxGeometry relative="1" as="geometry">
                        <mxPoint x="327" y="422" as="sourcePoint"/>
                        <mxPoint x="219" y="410" as="targetPoint"/>
                    </mxGeometry>
                </mxCell>
                <mxCell id="207" style="edgeStyle=none;html=1;exitX=0;exitY=0.5;exitDx=0;exitDy=0;entryX=1;entryY=0.5;entryDx=0;entryDy=0;strokeColor=default;endArrow=none;endFill=0;" edge="1" parent="1" source="51" target="205">
                    <mxGeometry relative="1" as="geometry"/>
                </mxCell>
                <mxCell id="208" style="edgeStyle=none;html=1;exitX=0;exitY=0.5;exitDx=0;exitDy=0;entryX=1;entryY=0;entryDx=0;entryDy=0;strokeColor=default;endArrow=none;endFill=0;" edge="1" parent="1" source="51" target="206">
                    <mxGeometry relative="1" as="geometry"/>
                </mxCell>
                <mxCell id="51" value="&lt;div&gt;Order&lt;/div&gt;&lt;div&gt;Details&lt;/div&gt;" style="shape=associativeEntity;whiteSpace=wrap;html=1;align=center;rounded=1;" parent="1" vertex="1">
                    <mxGeometry x="233" y="542" width="140" height="60" as="geometry"/>
                </mxCell>
                <mxCell id="52" value="product_id" style="ellipse;whiteSpace=wrap;html=1;align=center;fontStyle=4;rounded=1;fillColor=#a20025;fontColor=#ffffff;strokeColor=#6F0000;" parent="1" vertex="1">
                    <mxGeometry x="74" y="518" width="100" height="40" as="geometry"/>
                </mxCell>
                <mxCell id="53" value="&lt;div&gt;order_id&lt;/div&gt;" style="ellipse;whiteSpace=wrap;html=1;align=center;fontStyle=4;rounded=1;fillColor=#a20025;fontColor=#ffffff;strokeColor=#6F0000;" parent="1" vertex="1">
                    <mxGeometry x="104.5" y="470" width="100" height="40" as="geometry"/>
                </mxCell>
                <mxCell id="56" value="" style="endArrow=none;html=1;rounded=0;entryX=0.5;entryY=0;entryDx=0;entryDy=0;exitX=0.5;exitY=1;exitDx=0;exitDy=0;" parent="1" source="51" target="4" edge="1">
                    <mxGeometry relative="1" as="geometry">
                        <mxPoint x="156" y="683" as="sourcePoint"/>
                        <mxPoint x="316" y="683" as="targetPoint"/>
                    </mxGeometry>
                </mxCell>
                <mxCell id="57" value="N" style="resizable=0;html=1;align=right;verticalAlign=bottom;rounded=1;" parent="56" connectable="0" vertex="1">
                    <mxGeometry x="1" relative="1" as="geometry">
                        <mxPoint x="-4" y="-4" as="offset"/>
                    </mxGeometry>
                </mxCell>
                <mxCell id="58" value="" style="endArrow=none;html=1;rounded=0;entryX=1;entryY=1;entryDx=0;entryDy=0;exitX=0;exitY=0.5;exitDx=0;exitDy=0;" parent="1" source="51" target="53" edge="1">
                    <mxGeometry relative="1" as="geometry">
                        <mxPoint x="156" y="586" as="sourcePoint"/>
                        <mxPoint x="316" y="586" as="targetPoint"/>
                    </mxGeometry>
                </mxCell>
                <mxCell id="59" value="" style="endArrow=none;html=1;rounded=0;entryX=1;entryY=0.5;entryDx=0;entryDy=0;exitX=0;exitY=0.5;exitDx=0;exitDy=0;" parent="1" source="51" target="52" edge="1">
                    <mxGeometry relative="1" as="geometry">
                        <mxPoint x="156" y="586" as="sourcePoint"/>
                        <mxPoint x="316" y="586" as="targetPoint"/>
                    </mxGeometry>
                </mxCell>
                <mxCell id="60" value="&lt;div&gt;orders_id&lt;/div&gt;" style="ellipse;whiteSpace=wrap;html=1;align=center;fontStyle=4;rounded=1;fillColor=#60a917;fontColor=#ffffff;strokeColor=#2D7600;" parent="1" vertex="1">
                    <mxGeometry x="319" y="816" width="100" height="40" as="geometry"/>
                </mxCell>
                <mxCell id="61" value="" style="endArrow=none;html=1;rounded=0;exitX=0.5;exitY=1;exitDx=0;exitDy=0;entryX=0.5;entryY=0;entryDx=0;entryDy=0;" parent="1" source="4" target="60" edge="1">
                    <mxGeometry relative="1" as="geometry">
                        <mxPoint x="208" y="784" as="sourcePoint"/>
                        <mxPoint x="252" y="820" as="targetPoint"/>
                    </mxGeometry>
                </mxCell>
                <mxCell id="62" value="" style="endArrow=none;html=1;rounded=0;exitX=0.5;exitY=1;exitDx=0;exitDy=0;entryX=0.5;entryY=0;entryDx=0;entryDy=0;" parent="1" source="4" target="64" edge="1">
                    <mxGeometry relative="1" as="geometry">
                        <mxPoint x="208" y="784" as="sourcePoint"/>
                        <mxPoint x="208" y="821.67" as="targetPoint"/>
                    </mxGeometry>
                </mxCell>
                <mxCell id="63" value="&lt;div&gt;One customer can&lt;/div&gt;&lt;div&gt;have 0, one or many orders&lt;br&gt;&lt;/div&gt;" style="text;html=1;align=center;verticalAlign=middle;resizable=0;points=[];autosize=1;strokeColor=none;fillColor=none;" parent="1" vertex="1">
                    <mxGeometry x="37.5" y="671" width="167" height="41" as="geometry"/>
                </mxCell>
                <mxCell id="64" value="&lt;div&gt;customer_id&lt;/div&gt;" style="ellipse;whiteSpace=wrap;html=1;align=center;fontStyle=4;rounded=1;fillColor=#a20025;fontColor=#ffffff;strokeColor=#6F0000;" parent="1" vertex="1">
                    <mxGeometry x="260" y="861" width="100" height="40" as="geometry"/>
                </mxCell>
                <mxCell id="66" value="supplied by" style="shape=rhombus;perimeter=rhombusPerimeter;whiteSpace=wrap;html=1;align=center;rounded=1;" parent="1" vertex="1">
                    <mxGeometry x="243" y="154" width="120" height="60" as="geometry"/>
                </mxCell>
                <mxCell id="67" value="" style="endArrow=none;html=1;rounded=1;entryX=0.5;entryY=1;entryDx=0;entryDy=0;exitX=0.5;exitY=0;exitDx=0;exitDy=0;" parent="1" source="66" target="7" edge="1">
                    <mxGeometry relative="1" as="geometry">
                        <mxPoint x="515" y="164" as="sourcePoint"/>
                        <mxPoint x="564.6399999999999" y="230" as="targetPoint"/>
                    </mxGeometry>
                </mxCell>
                <mxCell id="68" value="1" style="resizable=0;html=1;align=right;verticalAlign=bottom;rounded=1;" parent="67" connectable="0" vertex="1">
                    <mxGeometry x="1" relative="1" as="geometry">
                        <mxPoint x="-5" y="20" as="offset"/>
                    </mxGeometry>
                </mxCell>
                <mxCell id="69" value="" style="endArrow=none;html=1;rounded=1;exitX=0.5;exitY=1;exitDx=0;exitDy=0;entryX=0.5;entryY=0;entryDx=0;entryDy=0;" parent="1" source="66" target="3" edge="1">
                    <mxGeometry relative="1" as="geometry">
                        <mxPoint x="385" y="313" as="sourcePoint"/>
                        <mxPoint x="335" y="301" as="targetPoint"/>
                    </mxGeometry>
                </mxCell>
                <mxCell id="70" value="N" style="resizable=0;html=1;align=right;verticalAlign=bottom;rounded=1;" parent="69" connectable="0" vertex="1">
                    <mxGeometry x="1" relative="1" as="geometry">
                        <mxPoint x="-4" y="-25" as="offset"/>
                    </mxGeometry>
                </mxCell>
                <mxCell id="71" value="supplier_id" style="ellipse;whiteSpace=wrap;html=1;align=center;fontStyle=4;rounded=1;fillColor=#60a917;fontColor=#ffffff;strokeColor=#2D7600;" parent="1" vertex="1">
                    <mxGeometry x="369" y="29" width="100" height="40" as="geometry"/>
                </mxCell>
                <mxCell id="72" value="" style="endArrow=none;html=1;rounded=0;entryX=0;entryY=0.5;entryDx=0;entryDy=0;exitX=0.5;exitY=0;exitDx=0;exitDy=0;" parent="1" source="7" target="71" edge="1">
                    <mxGeometry relative="1" as="geometry">
                        <mxPoint x="373" y="88" as="sourcePoint"/>
                        <mxPoint x="331" y="98" as="targetPoint"/>
                    </mxGeometry>
                </mxCell>
                <mxCell id="73" value="Each product has&lt;br&gt; a unique supplier" style="text;html=1;align=center;verticalAlign=middle;resizable=0;points=[];autosize=1;strokeColor=none;fillColor=none;" parent="1" vertex="1">
                    <mxGeometry x="369" y="163.5" width="114" height="41" as="geometry"/>
                </mxCell>
                <mxCell id="74" value="generates" style="shape=rhombus;perimeter=rhombusPerimeter;whiteSpace=wrap;html=1;align=center;rounded=1;" parent="1" vertex="1">
                    <mxGeometry x="60" y="718" width="120" height="60" as="geometry"/>
                </mxCell>
                <mxCell id="75" value="" style="endArrow=none;html=1;rounded=0;exitX=0.5;exitY=0;exitDx=0;exitDy=0;entryX=1;entryY=1;entryDx=0;entryDy=0;" parent="1" source="2" target="76" edge="1">
                    <mxGeometry relative="1" as="geometry">
                        <mxPoint x="-297" y="794.6699999999998" as="sourcePoint"/>
                        <mxPoint x="-297" y="832.3399999999999" as="targetPoint"/>
                    </mxGeometry>
                </mxCell>
                <mxCell id="76" value="&lt;div&gt;customer_id&lt;/div&gt;" style="ellipse;whiteSpace=wrap;html=1;align=center;fontStyle=4;rounded=1;fillColor=#60a917;fontColor=#ffffff;strokeColor=#2D7600;" parent="1" vertex="1">
                    <mxGeometry x="-278" y="552" width="100" height="40" as="geometry"/>
                </mxCell>
                <mxCell id="77" value="Each product has&lt;br&gt; a unique category" style="text;html=1;align=center;verticalAlign=middle;resizable=0;points=[];autosize=1;strokeColor=none;fillColor=none;" parent="1" vertex="1">
                    <mxGeometry x="585" y="336" width="115" height="41" as="geometry"/>
                </mxCell>
                <mxCell id="78" value="" style="endArrow=none;html=1;rounded=0;dashed=1;dashPattern=1 2;entryX=1;entryY=0.5;entryDx=0;entryDy=0;exitX=0;exitY=0.5;exitDx=0;exitDy=0;" parent="1" source="74" target="2" edge="1">
                    <mxGeometry relative="1" as="geometry">
                        <mxPoint x="-65" y="748" as="sourcePoint"/>
                        <mxPoint x="155" y="548.67" as="targetPoint"/>
                    </mxGeometry>
                </mxCell>
                <mxCell id="79" value="1" style="resizable=0;html=1;align=right;verticalAlign=bottom;" parent="78" connectable="0" vertex="1">
                    <mxGeometry x="1" relative="1" as="geometry">
                        <mxPoint x="16" as="offset"/>
                    </mxGeometry>
                </mxCell>
                <mxCell id="80" value="" style="endArrow=none;html=1;rounded=0;dashed=1;dashPattern=1 2;exitX=1;exitY=0.5;exitDx=0;exitDy=0;entryX=0;entryY=0.5;entryDx=0;entryDy=0;" parent="1" source="74" target="4" edge="1">
                    <mxGeometry relative="1" as="geometry">
                        <mxPoint x="120" y="548.67" as="sourcePoint"/>
                        <mxPoint x="280" y="548.67" as="targetPoint"/>
                    </mxGeometry>
                </mxCell>
                <mxCell id="81" value="N" style="resizable=0;html=1;align=right;verticalAlign=bottom;" parent="80" connectable="0" vertex="1">
                    <mxGeometry x="1" relative="1" as="geometry">
                        <mxPoint x="-6" as="offset"/>
                    </mxGeometry>
                </mxCell>
                <mxCell id="82" value="" style="endArrow=none;html=1;rounded=0;entryX=0.5;entryY=1;entryDx=0;entryDy=0;exitX=0.5;exitY=0;exitDx=0;exitDy=0;" parent="1" source="51" target="3" edge="1">
                    <mxGeometry relative="1" as="geometry">
                        <mxPoint x="180" y="582" as="sourcePoint"/>
                        <mxPoint x="340" y="582" as="targetPoint"/>
                    </mxGeometry>
                </mxCell>
                <mxCell id="83" value="N" style="resizable=0;html=1;align=right;verticalAlign=bottom;" parent="82" connectable="0" vertex="1">
                    <mxGeometry x="1" relative="1" as="geometry">
                        <mxPoint x="-3" y="23" as="offset"/>
                    </mxGeometry>
                </mxCell>
                <mxCell id="86" value="&lt;div&gt;An order can have&lt;/div&gt;&lt;div&gt;many products and a&lt;/div&gt;&lt;div&gt;product can be in multiple&lt;/div&gt;&lt;div&gt;orders&lt;br&gt;&lt;/div&gt;" style="text;html=1;align=center;verticalAlign=middle;resizable=0;points=[];autosize=1;strokeColor=none;fillColor=none;" parent="1" vertex="1">
                    <mxGeometry x="370" y="537" width="159" height="70" as="geometry"/>
                </mxCell>
                <mxCell id="87" value="supplier_id" style="ellipse;whiteSpace=wrap;html=1;align=center;fontStyle=4;rounded=1;fillColor=#a20025;fontColor=#ffffff;strokeColor=#6F0000;" parent="1" vertex="1">
                    <mxGeometry x="119" y="288" width="100" height="40" as="geometry"/>
                </mxCell>
                <mxCell id="88" value="" style="endArrow=none;html=1;rounded=0;exitX=1;exitY=0.5;exitDx=0;exitDy=0;entryX=0.5;entryY=0;entryDx=0;entryDy=0;" parent="1" source="87" target="3" edge="1">
                    <mxGeometry relative="1" as="geometry">
                        <mxPoint x="346" y="546" as="sourcePoint"/>
                        <mxPoint x="253" y="534" as="targetPoint"/>
                    </mxGeometry>
                </mxCell>
                <mxCell id="89" value="is paid by" style="shape=rhombus;perimeter=rhombusPerimeter;whiteSpace=wrap;html=1;align=center;rounded=1;" parent="1" vertex="1">
                    <mxGeometry x="432" y="719" width="120" height="60" as="geometry"/>
                </mxCell>
                <mxCell id="90" value="" style="endArrow=none;html=1;rounded=0;dashed=1;dashPattern=1 2;entryX=0;entryY=0.5;entryDx=0;entryDy=0;exitX=1;exitY=0.5;exitDx=0;exitDy=0;" parent="1" source="89" target="6" edge="1">
                    <mxGeometry relative="1" as="geometry">
                        <mxPoint x="558" y="760" as="sourcePoint"/>
                        <mxPoint x="715" y="612" as="targetPoint"/>
                    </mxGeometry>
                </mxCell>
                <mxCell id="91" value="N" style="resizable=0;html=1;align=right;verticalAlign=bottom;" parent="90" connectable="0" vertex="1">
                    <mxGeometry x="1" relative="1" as="geometry">
                        <mxPoint x="-11" y="-5" as="offset"/>
                    </mxGeometry>
                </mxCell>
                <mxCell id="92" value="" style="endArrow=none;html=1;rounded=0;dashed=1;dashPattern=1 2;exitX=0;exitY=0.5;exitDx=0;exitDy=0;entryX=1;entryY=0.5;entryDx=0;entryDy=0;" parent="1" source="89" target="4" edge="1">
                    <mxGeometry relative="1" as="geometry">
                        <mxPoint x="551" y="524" as="sourcePoint"/>
                        <mxPoint x="711" y="524" as="targetPoint"/>
                    </mxGeometry>
                </mxCell>
                <mxCell id="93" value="1" style="resizable=0;html=1;align=right;verticalAlign=bottom;" parent="92" connectable="0" vertex="1">
                    <mxGeometry x="1" relative="1" as="geometry">
                        <mxPoint x="12" as="offset"/>
                    </mxGeometry>
                </mxCell>
                <mxCell id="94" value="payment_id" style="ellipse;whiteSpace=wrap;html=1;align=center;fontStyle=4;rounded=1;fillColor=#60a917;fontColor=#ffffff;strokeColor=#2D7600;" parent="1" vertex="1">
                    <mxGeometry x="709" y="621" width="100" height="40" as="geometry"/>
                </mxCell>
                <mxCell id="95" value="" style="endArrow=none;html=1;rounded=0;exitX=1;exitY=1;exitDx=0;exitDy=0;entryX=0.5;entryY=0;entryDx=0;entryDy=0;" parent="1" source="94" target="6" edge="1">
                    <mxGeometry relative="1" as="geometry">
                        <mxPoint x="1173" y="649" as="sourcePoint"/>
                        <mxPoint x="1080" y="513" as="targetPoint"/>
                    </mxGeometry>
                </mxCell>
                <mxCell id="99" value="&lt;div&gt;1 order can be paid &lt;br&gt;by many payments&lt;br&gt;&lt;/div&gt;" style="text;html=1;align=center;verticalAlign=middle;resizable=0;points=[];autosize=1;strokeColor=none;fillColor=none;" parent="1" vertex="1">
                    <mxGeometry x="430" y="671" width="124" height="41" as="geometry"/>
                </mxCell>
                <mxCell id="108" value="&lt;u&gt;ad_id&lt;/u&gt;" style="ellipse;whiteSpace=wrap;html=1;align=center;rounded=1;fillColor=#60a917;fontColor=#ffffff;strokeColor=#2D7600;" parent="1" vertex="1">
                    <mxGeometry x="-301" y="328" width="100" height="40" as="geometry"/>
                </mxCell>
                <mxCell id="111" value="" style="endArrow=none;html=1;rounded=0;exitX=1;exitY=1;exitDx=0;exitDy=0;entryX=0.5;entryY=0;entryDx=0;entryDy=0;" parent="1" source="108" target="9" edge="1">
                    <mxGeometry relative="1" as="geometry">
                        <mxPoint x="-99" y="362" as="sourcePoint"/>
                        <mxPoint x="-173" y="349.9999999999999" as="targetPoint"/>
                    </mxGeometry>
                </mxCell>
                <mxCell id="114" value="has" style="shape=rhombus;perimeter=rhombusPerimeter;whiteSpace=wrap;html=1;align=center;rounded=1;" parent="1" vertex="1">
                    <mxGeometry x="-48" y="380" width="120" height="60" as="geometry"/>
                </mxCell>
                <mxCell id="119" value="" style="endArrow=none;html=1;rounded=0;dashed=1;dashPattern=1 2;entryX=0;entryY=0.5;entryDx=0;entryDy=0;exitX=1;exitY=0.5;exitDx=0;exitDy=0;" parent="1" source="114" target="3" edge="1">
                    <mxGeometry relative="1" as="geometry">
                        <mxPoint x="102" y="378" as="sourcePoint"/>
                        <mxPoint x="262" y="378" as="targetPoint"/>
                    </mxGeometry>
                </mxCell>
                <mxCell id="120" value="1" style="resizable=0;html=1;align=right;verticalAlign=bottom;" parent="119" connectable="0" vertex="1">
                    <mxGeometry x="1" relative="1" as="geometry">
                        <mxPoint x="-14" as="offset"/>
                    </mxGeometry>
                </mxCell>
                <mxCell id="121" value="" style="endArrow=none;html=1;rounded=0;dashed=1;dashPattern=1 2;entryX=1;entryY=0.5;entryDx=0;entryDy=0;exitX=0;exitY=0.5;exitDx=0;exitDy=0;" parent="1" source="114" target="9" edge="1">
                    <mxGeometry relative="1" as="geometry">
                        <mxPoint x="-57" y="409.9999999999998" as="sourcePoint"/>
                        <mxPoint x="156" y="423.0000000000001" as="targetPoint"/>
                    </mxGeometry>
                </mxCell>
                <mxCell id="122" value="1" style="resizable=0;html=1;align=right;verticalAlign=bottom;" parent="121" connectable="0" vertex="1">
                    <mxGeometry x="1" relative="1" as="geometry">
                        <mxPoint x="13" as="offset"/>
                    </mxGeometry>
                </mxCell>
                <mxCell id="123" value="One ad per product" style="text;html=1;align=center;verticalAlign=middle;resizable=0;points=[];autosize=1;strokeColor=none;fillColor=none;" parent="1" vertex="1">
                    <mxGeometry x="-51" y="347" width="123" height="26" as="geometry"/>
                </mxCell>
                <mxCell id="125" value="makes" style="shape=rhombus;perimeter=rhombusPerimeter;whiteSpace=wrap;html=1;align=center;rounded=1;" parent="1" vertex="1">
                    <mxGeometry x="192" y="1091" width="120" height="60" as="geometry"/>
                </mxCell>
                <mxCell id="136" value="&lt;div&gt;A customer can make&lt;/div&gt;&lt;div&gt;many transactions&lt;br&gt;&lt;/div&gt;" style="text;html=1;align=center;verticalAlign=middle;resizable=0;points=[];autosize=1;strokeColor=none;fillColor=none;" parent="1" vertex="1">
                    <mxGeometry x="187" y="1159" width="137" height="41" as="geometry"/>
                </mxCell>
                <mxCell id="141" value="product_id" style="ellipse;whiteSpace=wrap;html=1;align=center;fontStyle=4;rounded=1;fillColor=#a20025;fontColor=#ffffff;strokeColor=#6F0000;" parent="1" vertex="1">
                    <mxGeometry x="-230.5" y="280" width="100" height="40" as="geometry"/>
                </mxCell>
                <mxCell id="142" value="" style="endArrow=none;html=1;rounded=0;entryX=0.5;entryY=1;entryDx=0;entryDy=0;exitX=0.5;exitY=0;exitDx=0;exitDy=0;" parent="1" source="9" target="141" edge="1">
                    <mxGeometry relative="1" as="geometry">
                        <mxPoint x="143" y="511" as="sourcePoint"/>
                        <mxPoint x="303" y="511" as="targetPoint"/>
                    </mxGeometry>
                </mxCell>
                <mxCell id="143" value="" style="endArrow=none;html=1;rounded=0;dashed=1;dashPattern=1 2;entryX=0.5;entryY=1;entryDx=0;entryDy=0;exitX=1;exitY=0.5;exitDx=0;exitDy=0;" parent="1" source="125" target="6" edge="1">
                    <mxGeometry relative="1" as="geometry">
                        <mxPoint x="201" y="688" as="sourcePoint"/>
                        <mxPoint x="361" y="688" as="targetPoint"/>
                        <Array as="points">
                            <mxPoint x="833" y="1121"/>
                        </Array>
                    </mxGeometry>
                </mxCell>
                <mxCell id="144" value="N" style="resizable=0;html=1;align=right;verticalAlign=bottom;" parent="143" connectable="0" vertex="1">
                    <mxGeometry x="1" relative="1" as="geometry">
                        <mxPoint x="-6" y="23" as="offset"/>
                    </mxGeometry>
                </mxCell>
                <mxCell id="145" value="" style="endArrow=none;html=1;rounded=0;entryX=0.5;entryY=1;entryDx=0;entryDy=0;exitX=0;exitY=0.5;exitDx=0;exitDy=0;" parent="1" source="125" target="2" edge="1">
                    <mxGeometry relative="1" as="geometry">
                        <mxPoint x="148" y="1122" as="sourcePoint"/>
                        <mxPoint x="258" y="668" as="targetPoint"/>
                        <Array as="points">
                            <mxPoint x="-168" y="1123"/>
                        </Array>
                    </mxGeometry>
                </mxCell>
                <mxCell id="146" value="1" style="resizable=0;html=1;align=right;verticalAlign=bottom;" parent="145" connectable="0" vertex="1">
                    <mxGeometry x="1" relative="1" as="geometry">
                        <mxPoint x="-8" y="21" as="offset"/>
                    </mxGeometry>
                </mxCell>
                <mxCell id="148" value="order_id" style="ellipse;whiteSpace=wrap;html=1;align=center;fontStyle=4;rounded=1;fillColor=#a20025;fontColor=#ffffff;strokeColor=#6F0000;" parent="1" vertex="1">
                    <mxGeometry x="688" y="668" width="100" height="40" as="geometry"/>
                </mxCell>
                <mxCell id="150" value="" style="endArrow=none;html=1;rounded=0;entryX=0.5;entryY=0;entryDx=0;entryDy=0;exitX=1;exitY=1;exitDx=0;exitDy=0;" parent="1" source="148" target="6" edge="1">
                    <mxGeometry relative="1" as="geometry">
                        <mxPoint x="508" y="654" as="sourcePoint"/>
                        <mxPoint x="668" y="654" as="targetPoint"/>
                    </mxGeometry>
                </mxCell>
                <mxCell id="151" value="is child of" style="shape=rhombus;perimeter=rhombusPerimeter;whiteSpace=wrap;html=1;align=center;rounded=1;shadow=0;" parent="1" vertex="1">
                    <mxGeometry x="842.9" y="500" width="120" height="60" as="geometry"/>
                </mxCell>
                <mxCell id="156" value="cat_parent_id" style="ellipse;whiteSpace=wrap;html=1;align=center;fontStyle=4;rounded=1;fillColor=#a20025;fontColor=#ffffff;strokeColor=#6F0000;" parent="1" vertex="1">
                    <mxGeometry x="794" y="280" width="100" height="40" as="geometry"/>
                </mxCell>
                <mxCell id="157" value="" style="endArrow=none;html=1;rounded=0;entryX=0.5;entryY=0;entryDx=0;entryDy=0;exitX=0.5;exitY=1;exitDx=0;exitDy=0;" parent="1" source="156" target="8" edge="1">
                    <mxGeometry relative="1" as="geometry">
                        <mxPoint x="719" y="469" as="sourcePoint"/>
                        <mxPoint x="1031" y="385" as="targetPoint"/>
                    </mxGeometry>
                </mxCell>
                <mxCell id="158" value="&lt;div&gt;Many categories can be the&lt;/div&gt;&lt;div&gt;child of one category&lt;br&gt;&lt;/div&gt;" style="text;html=1;align=center;verticalAlign=middle;resizable=0;points=[];autosize=1;strokeColor=none;fillColor=none;" parent="1" vertex="1">
                    <mxGeometry x="961" y="453" width="160" height="41" as="geometry"/>
                </mxCell>
                <mxCell id="159" value="" style="endArrow=none;html=1;rounded=0;dashed=1;dashPattern=1 2;exitX=0;exitY=0.5;exitDx=0;exitDy=0;entryX=0.5;entryY=1;entryDx=0;entryDy=0;" parent="1" source="151" target="8" edge="1">
                    <mxGeometry relative="1" as="geometry">
                        <mxPoint x="446" y="761" as="sourcePoint"/>
                        <mxPoint x="519" y="761" as="targetPoint"/>
                    </mxGeometry>
                </mxCell>
                <mxCell id="160" value="N" style="resizable=0;html=1;align=right;verticalAlign=bottom;" parent="159" connectable="0" vertex="1">
                    <mxGeometry x="1" relative="1" as="geometry">
                        <mxPoint x="-28" y="31" as="offset"/>
                    </mxGeometry>
                </mxCell>
                <mxCell id="161" value="" style="endArrow=none;html=1;rounded=0;dashed=1;dashPattern=1 2;entryX=1;entryY=0.5;entryDx=0;entryDy=0;exitX=0.5;exitY=1;exitDx=0;exitDy=0;" parent="1" source="8" target="151" edge="1">
                    <mxGeometry relative="1" as="geometry">
                        <mxPoint x="804" y="762" as="sourcePoint"/>
                        <mxPoint x="870" y="762" as="targetPoint"/>
                    </mxGeometry>
                </mxCell>
                <mxCell id="162" value="1" style="resizable=0;html=1;align=right;verticalAlign=bottom;" parent="161" connectable="0" vertex="1">
                    <mxGeometry x="1" relative="1" as="geometry">
                        <mxPoint x="-24" y="-70" as="offset"/>
                    </mxGeometry>
                </mxCell>
                <mxCell id="166" style="edgeStyle=none;html=1;exitX=1;exitY=0.5;exitDx=0;exitDy=0;entryX=0.5;entryY=0;entryDx=0;entryDy=0;strokeColor=default;endArrow=none;endFill=0;" edge="1" parent="1" source="163" target="3">
                    <mxGeometry relative="1" as="geometry"/>
                </mxCell>
                <mxCell id="163" value="product_id" style="ellipse;whiteSpace=wrap;html=1;align=center;fontStyle=4;rounded=1;fillColor=#60a917;fontColor=#ffffff;strokeColor=#2D7600;" vertex="1" parent="1">
                    <mxGeometry x="94" y="340" width="100" height="40" as="geometry"/>
                </mxCell>
                <mxCell id="165" style="edgeStyle=none;html=1;exitX=0;exitY=1;exitDx=0;exitDy=0;entryX=0.5;entryY=0;entryDx=0;entryDy=0;strokeColor=default;endArrow=none;endFill=0;" edge="1" parent="1" source="164" target="3">
                    <mxGeometry relative="1" as="geometry"/>
                </mxCell>
                <mxCell id="164" value="product_desc" style="ellipse;whiteSpace=wrap;html=1;align=center;fontStyle=0;rounded=1;fillColor=#1ba1e2;fontColor=#ffffff;strokeColor=#006EAF;" vertex="1" parent="1">
                    <mxGeometry x="429" y="307" width="100" height="40" as="geometry"/>
                </mxCell>
                <mxCell id="168" style="edgeStyle=none;html=1;exitX=0;exitY=0.5;exitDx=0;exitDy=0;entryX=0.5;entryY=0;entryDx=0;entryDy=0;strokeColor=default;endArrow=none;endFill=0;" edge="1" parent="1" source="167" target="3">
                    <mxGeometry relative="1" as="geometry"/>
                </mxCell>
                <mxCell id="167" value="product_price" style="ellipse;whiteSpace=wrap;html=1;align=center;fontStyle=0;rounded=1;fillColor=#1ba1e2;fontColor=#ffffff;strokeColor=#006EAF;" vertex="1" parent="1">
                    <mxGeometry x="442" y="355" width="100" height="40" as="geometry"/>
                </mxCell>
                <mxCell id="172" style="edgeStyle=none;html=1;exitX=0.5;exitY=1;exitDx=0;exitDy=0;entryX=0.5;entryY=0;entryDx=0;entryDy=0;strokeColor=default;endArrow=none;endFill=0;" edge="1" parent="1" source="170" target="8">
                    <mxGeometry relative="1" as="geometry"/>
                </mxCell>
                <mxCell id="170" value="cat_name" style="ellipse;whiteSpace=wrap;html=1;align=center;fontStyle=0;rounded=1;fillColor=#1ba1e2;fontColor=#ffffff;strokeColor=#006EAF;" vertex="1" parent="1">
                    <mxGeometry x="901" y="280" width="100" height="40" as="geometry"/>
                </mxCell>
                <mxCell id="173" style="edgeStyle=none;html=1;exitX=0;exitY=0.5;exitDx=0;exitDy=0;entryX=0.5;entryY=0;entryDx=0;entryDy=0;strokeColor=default;endArrow=none;endFill=0;" edge="1" parent="1" source="171" target="8">
                    <mxGeometry relative="1" as="geometry"/>
                </mxCell>
                <mxCell id="171" value="cat_desc" style="ellipse;whiteSpace=wrap;html=1;align=center;fontStyle=0;rounded=1;fillColor=#1ba1e2;fontColor=#ffffff;strokeColor=#006EAF;" vertex="1" parent="1">
                    <mxGeometry x="942" y="340" width="100" height="40" as="geometry"/>
                </mxCell>
                <mxCell id="183" style="edgeStyle=none;html=1;exitX=1;exitY=0;exitDx=0;exitDy=0;entryX=0.5;entryY=1;entryDx=0;entryDy=0;strokeColor=default;endArrow=none;endFill=0;startArrow=none;" edge="1" parent="1" source="200" target="4">
                    <mxGeometry relative="1" as="geometry">
                        <mxPoint x="181.23279132484868" y="907.8090146052693" as="sourcePoint"/>
                        <mxPoint x="208" y="784" as="targetPoint"/>
                    </mxGeometry>
                </mxCell>
                <mxCell id="190" style="edgeStyle=none;html=1;exitX=0.5;exitY=1;exitDx=0;exitDy=0;entryX=0;entryY=0.5;entryDx=0;entryDy=0;strokeColor=default;endArrow=none;endFill=0;" edge="1" parent="1" source="200" target="185">
                    <mxGeometry relative="1" as="geometry">
                        <mxPoint x="146" y="942" as="sourcePoint"/>
                    </mxGeometry>
                </mxCell>
                <mxCell id="191" style="edgeStyle=none;html=1;exitX=0.5;exitY=1;exitDx=0;exitDy=0;entryX=1;entryY=0.5;entryDx=0;entryDy=0;strokeColor=default;endArrow=none;endFill=0;" edge="1" parent="1" source="200" target="186">
                    <mxGeometry relative="1" as="geometry">
                        <mxPoint x="146" y="942" as="sourcePoint"/>
                    </mxGeometry>
                </mxCell>
                <mxCell id="193" style="edgeStyle=none;html=1;exitX=0.5;exitY=1;exitDx=0;exitDy=0;entryX=1;entryY=0;entryDx=0;entryDy=0;strokeColor=default;endArrow=none;endFill=0;" edge="1" parent="1" source="200" target="187">
                    <mxGeometry relative="1" as="geometry">
                        <mxPoint x="146" y="942" as="sourcePoint"/>
                    </mxGeometry>
                </mxCell>
                <mxCell id="194" style="edgeStyle=none;html=1;exitX=0.5;exitY=1;exitDx=0;exitDy=0;entryX=0.5;entryY=0;entryDx=0;entryDy=0;strokeColor=default;endArrow=none;endFill=0;" edge="1" parent="1" source="200" target="188">
                    <mxGeometry relative="1" as="geometry">
                        <mxPoint x="146" y="942" as="sourcePoint"/>
                    </mxGeometry>
                </mxCell>
                <mxCell id="195" style="edgeStyle=none;html=1;exitX=0.5;exitY=1;exitDx=0;exitDy=0;entryX=0;entryY=0;entryDx=0;entryDy=0;strokeColor=default;endArrow=none;endFill=0;" edge="1" parent="1" source="200" target="189">
                    <mxGeometry relative="1" as="geometry">
                        <mxPoint x="146" y="942" as="sourcePoint"/>
                    </mxGeometry>
                </mxCell>
                <mxCell id="184" style="edgeStyle=none;html=1;exitX=0;exitY=0;exitDx=0;exitDy=0;entryX=0.5;entryY=1;entryDx=0;entryDy=0;strokeColor=default;endArrow=none;endFill=0;" edge="1" parent="1" source="175" target="4">
                    <mxGeometry relative="1" as="geometry">
                        <mxPoint x="208" y="784" as="targetPoint"/>
                    </mxGeometry>
                </mxCell>
                <mxCell id="175" value="&lt;div&gt;orders_status&lt;/div&gt;" style="ellipse;whiteSpace=wrap;html=1;align=center;fontStyle=0;rounded=1;fillColor=#1ba1e2;fontColor=#ffffff;strokeColor=#006EAF;" vertex="1" parent="1">
                    <mxGeometry x="219" y="907" width="100" height="40" as="geometry"/>
                </mxCell>
                <mxCell id="182" style="edgeStyle=none;html=1;exitX=1;exitY=0.5;exitDx=0;exitDy=0;entryX=0.5;entryY=1;entryDx=0;entryDy=0;strokeColor=default;endArrow=none;endFill=0;" edge="1" parent="1" source="176" target="4">
                    <mxGeometry relative="1" as="geometry">
                        <mxPoint x="208" y="784" as="targetPoint"/>
                    </mxGeometry>
                </mxCell>
                <mxCell id="176" value="&lt;div&gt;order_deliv_date&lt;/div&gt;" style="ellipse;whiteSpace=wrap;html=1;align=center;fontStyle=4;rounded=1;fillColor=#1ba1e2;fontColor=#ffffff;strokeColor=#006EAF;" vertex="1" parent="1">
                    <mxGeometry x="74" y="849" width="100" height="40" as="geometry"/>
                </mxCell>
                <mxCell id="177" value="&lt;div&gt;order_date&lt;/div&gt;" style="ellipse;whiteSpace=wrap;html=1;align=center;fontStyle=4;rounded=1;fillColor=#1ba1e2;fontColor=#ffffff;strokeColor=#006EAF;" vertex="1" parent="1">
                    <mxGeometry x="61" y="802" width="100" height="40" as="geometry"/>
                </mxCell>
                <mxCell id="185" value="&lt;div&gt;region&lt;/div&gt;" style="ellipse;whiteSpace=wrap;html=1;align=center;fontStyle=0;rounded=1;fillColor=#1ba1e2;fontColor=#ffffff;strokeColor=#006EAF;" vertex="1" parent="1">
                    <mxGeometry x="192" y="953" width="100" height="40" as="geometry"/>
                </mxCell>
                <mxCell id="186" value="&lt;div&gt;post_code&lt;/div&gt;" style="ellipse;whiteSpace=wrap;html=1;align=center;fontStyle=0;rounded=1;fillColor=#1ba1e2;fontColor=#ffffff;strokeColor=#006EAF;" vertex="1" parent="1">
                    <mxGeometry x="15" y="953" width="100" height="40" as="geometry"/>
                </mxCell>
                <mxCell id="187" value="&lt;div&gt;city&lt;/div&gt;" style="ellipse;whiteSpace=wrap;html=1;align=center;fontStyle=0;rounded=1;fillColor=#1ba1e2;fontColor=#ffffff;strokeColor=#006EAF;" vertex="1" parent="1">
                    <mxGeometry x="42" y="1004" width="100" height="40" as="geometry"/>
                </mxCell>
                <mxCell id="188" value="&lt;div&gt;street&lt;/div&gt;" style="ellipse;whiteSpace=wrap;html=1;align=center;fontStyle=0;rounded=1;fillColor=#1ba1e2;fontColor=#ffffff;strokeColor=#006EAF;" vertex="1" parent="1">
                    <mxGeometry x="102" y="1048" width="100" height="40" as="geometry"/>
                </mxCell>
                <mxCell id="189" value="&lt;div&gt;number&lt;/div&gt;" style="ellipse;whiteSpace=wrap;html=1;align=center;fontStyle=0;rounded=1;fillColor=#1ba1e2;fontColor=#ffffff;strokeColor=#006EAF;" vertex="1" parent="1">
                    <mxGeometry x="164" y="1001" width="100" height="40" as="geometry"/>
                </mxCell>
                <mxCell id="196" value="&lt;div&gt;order_date&lt;/div&gt;" style="ellipse;whiteSpace=wrap;html=1;align=center;fontStyle=4;rounded=1;fillColor=#1ba1e2;fontColor=#ffffff;strokeColor=#006EAF;" vertex="1" parent="1">
                    <mxGeometry x="61" y="802" width="100" height="40" as="geometry"/>
                </mxCell>
                <mxCell id="197" value="&lt;div&gt;orders_deliv_date&lt;/div&gt;" style="ellipse;whiteSpace=wrap;html=1;align=center;fontStyle=0;rounded=1;fillColor=#1ba1e2;fontColor=#ffffff;strokeColor=#006EAF;" vertex="1" parent="1">
                    <mxGeometry x="74" y="849" width="100" height="40" as="geometry"/>
                </mxCell>
                <mxCell id="198" value="&lt;div&gt;orders_date&lt;/div&gt;" style="ellipse;whiteSpace=wrap;html=1;align=center;fontStyle=0;rounded=1;fillColor=#1ba1e2;fontColor=#ffffff;strokeColor=#006EAF;" vertex="1" parent="1">
                    <mxGeometry x="61" y="802" width="100" height="40" as="geometry"/>
                </mxCell>
                <mxCell id="205" value="&lt;div&gt;od_amount&lt;/div&gt;" style="ellipse;whiteSpace=wrap;html=1;align=center;fontStyle=0;rounded=1;fillColor=#1ba1e2;fontColor=#ffffff;strokeColor=#006EAF;" vertex="1" parent="1">
                    <mxGeometry x="74" y="569" width="100" height="40" as="geometry"/>
                </mxCell>
                <mxCell id="206" value="&lt;div&gt;od_discount&lt;/div&gt;" style="ellipse;whiteSpace=wrap;html=1;align=center;fontStyle=0;rounded=1;fillColor=#1ba1e2;fontColor=#ffffff;strokeColor=#006EAF;" vertex="1" parent="1">
                    <mxGeometry x="104.5" y="619" width="100" height="40" as="geometry"/>
                </mxCell>
                <mxCell id="213" style="edgeStyle=none;html=1;entryX=0.5;entryY=0;entryDx=0;entryDy=0;strokeColor=default;endArrow=none;endFill=0;exitX=0.5;exitY=1;exitDx=0;exitDy=0;" edge="1" parent="1" source="209" target="7">
                    <mxGeometry relative="1" as="geometry">
                        <mxPoint x="250" y="-3" as="sourcePoint"/>
                    </mxGeometry>
                </mxCell>
                <mxCell id="209" value="supplier_name" style="ellipse;whiteSpace=wrap;html=1;align=center;fontStyle=0;rounded=1;fillColor=#1ba1e2;fontColor=#ffffff;strokeColor=#006EAF;" vertex="1" parent="1">
                    <mxGeometry x="187" y="-36" width="100" height="40" as="geometry"/>
                </mxCell>
                <mxCell id="212" style="edgeStyle=none;html=1;exitX=1;exitY=1;exitDx=0;exitDy=0;entryX=0.5;entryY=0;entryDx=0;entryDy=0;strokeColor=default;endArrow=none;endFill=0;" edge="1" parent="1" source="210" target="7">
                    <mxGeometry relative="1" as="geometry"/>
                </mxCell>
                <mxCell id="210" value="supplier_phone" style="ellipse;whiteSpace=wrap;html=1;align=center;fontStyle=0;rounded=1;fillColor=#1ba1e2;fontColor=#ffffff;strokeColor=#006EAF;" vertex="1" parent="1">
                    <mxGeometry x="137" y="16" width="100" height="40" as="geometry"/>
                </mxCell>
                <mxCell id="211" value="supplier_email" style="ellipse;whiteSpace=wrap;html=1;align=center;fontStyle=0;rounded=1;fillColor=#1ba1e2;fontColor=#ffffff;strokeColor=#006EAF;" vertex="1" parent="1">
                    <mxGeometry x="303" y="-36" width="100" height="40" as="geometry"/>
                </mxCell>
                <mxCell id="200" value="&lt;div&gt;orders_address&lt;/div&gt;" style="ellipse;whiteSpace=wrap;html=1;align=center;fontStyle=0;rounded=1;fillColor=#647687;fontColor=#ffffff;strokeColor=#314354;" vertex="1" parent="1">
                    <mxGeometry x="102" y="907" width="100" height="40" as="geometry"/>
                </mxCell>
                <mxCell id="217" value="ad_url" style="ellipse;whiteSpace=wrap;html=1;align=center;fontStyle=0;rounded=1;fillColor=#1ba1e2;fontColor=#ffffff;strokeColor=#006EAF;" vertex="1" parent="1">
                    <mxGeometry x="-165" y="328" width="100" height="40" as="geometry"/>
                </mxCell>
                <mxCell id="218" value="" style="endArrow=none;html=1;rounded=0;exitX=0;exitY=1;exitDx=0;exitDy=0;entryX=0.5;entryY=0;entryDx=0;entryDy=0;" edge="1" parent="1" source="217" target="9">
                    <mxGeometry relative="1" as="geometry">
                        <mxPoint x="-20" y="389.5" as="sourcePoint"/>
                        <mxPoint x="-63" y="357.5000000000002" as="targetPoint"/>
                    </mxGeometry>
                </mxCell>
                <mxCell id="226" style="edgeStyle=none;html=1;exitX=0;exitY=1;exitDx=0;exitDy=0;entryX=0.5;entryY=0;entryDx=0;entryDy=0;strokeColor=default;fontSize=10;endArrow=none;endFill=0;" edge="1" parent="1" source="220" target="2">
                    <mxGeometry relative="1" as="geometry"/>
                </mxCell>
                <mxCell id="220" value="customer_first" style="ellipse;whiteSpace=wrap;html=1;align=center;fontStyle=0;rounded=1;fillColor=#1ba1e2;fontColor=#ffffff;strokeColor=#006EAF;" vertex="1" parent="1">
                    <mxGeometry x="-161" y="552" width="100" height="40" as="geometry"/>
                </mxCell>
                <mxCell id="227" style="edgeStyle=none;html=1;exitX=1;exitY=0.5;exitDx=0;exitDy=0;entryX=0.5;entryY=0;entryDx=0;entryDy=0;strokeColor=default;fontSize=10;endArrow=none;endFill=0;" edge="1" parent="1" source="221" target="2">
                    <mxGeometry relative="1" as="geometry"/>
                </mxCell>
                <mxCell id="221" value="customer_age" style="ellipse;whiteSpace=wrap;html=1;align=center;fontStyle=0;rounded=1;fillColor=#1ba1e2;fontColor=#ffffff;strokeColor=#006EAF;" vertex="1" parent="1">
                    <mxGeometry x="-299" y="605" width="100" height="40" as="geometry"/>
                </mxCell>
                <mxCell id="230" style="edgeStyle=none;html=1;exitX=0;exitY=0.5;exitDx=0;exitDy=0;strokeColor=default;fontSize=10;endArrow=none;endFill=0;" edge="1" parent="1" source="222">
                    <mxGeometry relative="1" as="geometry">
                        <mxPoint x="-170" y="730" as="targetPoint"/>
                    </mxGeometry>
                </mxCell>
                <mxCell id="222" value="customer_email" style="ellipse;whiteSpace=wrap;html=1;align=center;fontStyle=0;rounded=1;fillColor=#1ba1e2;fontColor=#ffffff;strokeColor=#006EAF;" vertex="1" parent="1">
                    <mxGeometry x="-130.5" y="663" width="100" height="40" as="geometry"/>
                </mxCell>
                <mxCell id="228" style="edgeStyle=none;html=1;exitX=1;exitY=0.5;exitDx=0;exitDy=0;entryX=0.5;entryY=0;entryDx=0;entryDy=0;strokeColor=default;fontSize=10;endArrow=none;endFill=0;" edge="1" parent="1" source="223" target="2">
                    <mxGeometry relative="1" as="geometry"/>
                </mxCell>
                <mxCell id="223" value="customer_phone" style="ellipse;whiteSpace=wrap;html=1;align=center;fontStyle=0;rounded=1;fillColor=#1ba1e2;fontColor=#ffffff;strokeColor=#006EAF;" vertex="1" parent="1">
                    <mxGeometry x="-308" y="661" width="100" height="40" as="geometry"/>
                </mxCell>
                <mxCell id="229" style="edgeStyle=none;html=1;exitX=0;exitY=0.5;exitDx=0;exitDy=0;entryX=0.5;entryY=0;entryDx=0;entryDy=0;strokeColor=default;fontSize=10;endArrow=none;endFill=0;" edge="1" parent="1" source="224" target="2">
                    <mxGeometry relative="1" as="geometry"/>
                </mxCell>
                <mxCell id="224" value="customer_last" style="ellipse;whiteSpace=wrap;html=1;align=center;fontStyle=0;rounded=1;fillColor=#1ba1e2;fontColor=#ffffff;strokeColor=#006EAF;" vertex="1" parent="1">
                    <mxGeometry x="-133" y="609" width="100" height="40" as="geometry"/>
                </mxCell>
                <mxCell id="231" value="payment_date" style="ellipse;whiteSpace=wrap;html=1;align=center;fontStyle=0;rounded=1;fillColor=#1ba1e2;fontColor=#ffffff;strokeColor=#006EAF;" vertex="1" parent="1">
                    <mxGeometry x="777" y="575" width="100" height="40" as="geometry"/>
                </mxCell>
                <mxCell id="232" value="payment_type" style="ellipse;whiteSpace=wrap;html=1;align=center;fontStyle=0;rounded=1;fillColor=#1ba1e2;fontColor=#ffffff;strokeColor=#006EAF;" vertex="1" parent="1">
                    <mxGeometry x="847" y="619" width="100" height="40" as="geometry"/>
                </mxCell>
                <mxCell id="233" value="payment_value" style="ellipse;whiteSpace=wrap;html=1;align=center;fontStyle=0;rounded=1;fillColor=#1ba1e2;fontColor=#ffffff;strokeColor=#006EAF;" vertex="1" parent="1">
                    <mxGeometry x="869" y="668" width="100" height="40" as="geometry"/>
                </mxCell>
                <mxCell id="237" value="product_stock" style="ellipse;whiteSpace=wrap;html=1;align=center;fontStyle=0;rounded=1;fillColor=#1ba1e2;fontColor=#ffffff;strokeColor=#006EAF;" vertex="1" parent="1">
                    <mxGeometry x="310" y="237" width="100" height="40" as="geometry"/>
                </mxCell>
                <mxCell id="241" value="Payment_Details" style="whiteSpace=wrap;html=1;align=center;rounded=1;" vertex="1" parent="1">
                    <mxGeometry x="1141" y="729" width="100" height="40" as="geometry"/>
                </mxCell>
                <mxCell id="244" style="edgeStyle=none;html=1;exitX=0.5;exitY=1;exitDx=0;exitDy=0;entryX=0.5;entryY=0;entryDx=0;entryDy=0;strokeColor=default;fontSize=10;endArrow=none;endFill=0;" edge="1" parent="1" source="242" target="241">
                    <mxGeometry relative="1" as="geometry"/>
                </mxCell>
                <mxCell id="242" value="payment_type" style="ellipse;whiteSpace=wrap;html=1;align=center;fontStyle=4;rounded=1;fillColor=#a20025;strokeColor=#6F0000;fontColor=#ffffff;" vertex="1" parent="1">
                    <mxGeometry x="1078" y="640" width="100" height="40" as="geometry"/>
                </mxCell>
                <mxCell id="245" style="edgeStyle=none;html=1;exitX=0.5;exitY=1;exitDx=0;exitDy=0;entryX=0.5;entryY=0;entryDx=0;entryDy=0;strokeColor=default;fontSize=10;endArrow=none;endFill=0;" edge="1" parent="1" source="243" target="241">
                    <mxGeometry relative="1" as="geometry"/>
                </mxCell>
                <mxCell id="243" value="payment_desc" style="ellipse;whiteSpace=wrap;html=1;align=center;fontStyle=4;rounded=1;fillColor=#60a917;strokeColor=#2D7600;fontColor=#ffffff;" vertex="1" parent="1">
                    <mxGeometry x="1210" y="640" width="100" height="40" as="geometry"/>
                </mxCell>
                <mxCell id="246" value="is one of" style="shape=rhombus;perimeter=rhombusPerimeter;whiteSpace=wrap;html=1;align=center;rounded=1;shadow=0;" vertex="1" parent="1">
                    <mxGeometry x="964" y="719" width="120" height="60" as="geometry"/>
                </mxCell>
                <mxCell id="247" value="Auxiliary payment details table" style="text;html=1;align=center;verticalAlign=middle;resizable=0;points=[];autosize=1;strokeColor=none;fillColor=none;" vertex="1" parent="1">
                    <mxGeometry x="933" y="790" width="182" height="26" as="geometry"/>
                </mxCell>
                <mxCell id="248" value="" style="endArrow=none;html=1;rounded=1;exitX=0;exitY=0.5;exitDx=0;exitDy=0;entryX=1;entryY=0.5;entryDx=0;entryDy=0;" edge="1" parent="1" source="246" target="6">
                    <mxGeometry relative="1" as="geometry">
                        <mxPoint x="972.9" y="733" as="sourcePoint"/>
                        <mxPoint x="746.9" y="733" as="targetPoint"/>
                    </mxGeometry>
                </mxCell>
                <mxCell id="249" value="N" style="resizable=0;html=1;align=right;verticalAlign=bottom;rounded=1;" connectable="0" vertex="1" parent="248">
                    <mxGeometry x="1" relative="1" as="geometry">
                        <mxPoint x="16" as="offset"/>
                    </mxGeometry>
                </mxCell>
                <mxCell id="250" value="" style="endArrow=none;html=1;rounded=1;entryX=0;entryY=0.5;entryDx=0;entryDy=0;exitX=1;exitY=0.5;exitDx=0;exitDy=0;" edge="1" parent="1" source="246" target="241">
                    <mxGeometry relative="1" as="geometry">
                        <mxPoint x="947.9000000000001" y="701" as="sourcePoint"/>
                        <mxPoint x="1107.44" y="701.06" as="targetPoint"/>
                    </mxGeometry>
                </mxCell>
                <mxCell id="251" value="1" style="resizable=0;html=1;align=right;verticalAlign=bottom;rounded=1;" connectable="0" vertex="1" parent="250">
                    <mxGeometry x="1" relative="1" as="geometry">
                        <mxPoint x="-5" as="offset"/>
                    </mxGeometry>
                </mxCell>
                <mxCell id="252" value="Shipping_Details" style="whiteSpace=wrap;html=1;align=center;rounded=1;" vertex="1" parent="1">
                    <mxGeometry x="624" y="889" width="100" height="40" as="geometry"/>
                </mxCell>
                <mxCell id="255" style="edgeStyle=none;html=1;exitX=0;exitY=0;exitDx=0;exitDy=0;entryX=0.5;entryY=1;entryDx=0;entryDy=0;strokeColor=default;fontSize=10;endArrow=none;endFill=0;" edge="1" parent="1" source="254" target="252">
                    <mxGeometry relative="1" as="geometry"/>
                </mxCell>
                <mxCell id="254" value="&lt;div&gt;post_code&lt;/div&gt;" style="ellipse;whiteSpace=wrap;html=1;align=center;fontStyle=4;rounded=1;fillColor=#a20025;fontColor=#ffffff;strokeColor=#6F0000;" vertex="1" parent="1">
                    <mxGeometry x="700" y="950" width="100" height="40" as="geometry"/>
                </mxCell>
                <mxCell id="259" style="edgeStyle=none;html=1;exitX=0.5;exitY=0;exitDx=0;exitDy=0;entryX=0.5;entryY=1;entryDx=0;entryDy=0;strokeColor=default;fontSize=10;endArrow=none;endFill=0;" edge="1" parent="1" source="256" target="252">
                    <mxGeometry relative="1" as="geometry"/>
                </mxCell>
                <mxCell id="256" value="shipping_cost" style="ellipse;whiteSpace=wrap;html=1;align=center;fontStyle=0;rounded=1;fillColor=#1ba1e2;fontColor=#ffffff;strokeColor=#006EAF;" vertex="1" parent="1">
                    <mxGeometry x="624" y="990" width="100" height="40" as="geometry"/>
                </mxCell>
                <mxCell id="258" style="edgeStyle=none;html=1;exitX=1;exitY=0;exitDx=0;exitDy=0;entryX=0.5;entryY=1;entryDx=0;entryDy=0;strokeColor=default;fontSize=10;endArrow=none;endFill=0;" edge="1" parent="1" source="257" target="252">
                    <mxGeometry relative="1" as="geometry"/>
                </mxCell>
                <mxCell id="257" value="courier" style="ellipse;whiteSpace=wrap;html=1;align=center;fontStyle=0;rounded=1;fillColor=#1ba1e2;fontColor=#ffffff;strokeColor=#006EAF;" vertex="1" parent="1">
                    <mxGeometry x="552" y="950" width="100" height="40" as="geometry"/>
                </mxCell>
                <mxCell id="260" value="has shipping&lt;br&gt;details" style="shape=rhombus;perimeter=rhombusPerimeter;whiteSpace=wrap;html=1;align=center;rounded=1;" vertex="1" parent="1">
                    <mxGeometry x="455.5" y="812" width="120" height="60" as="geometry"/>
                </mxCell>
                <mxCell id="261" value="" style="endArrow=none;html=1;rounded=0;strokeColor=default;fontSize=10;exitX=1;exitY=1;exitDx=0;exitDy=0;entryX=0;entryY=0;entryDx=0;entryDy=0;" edge="1" parent="1" source="4" target="260">
                    <mxGeometry relative="1" as="geometry">
                        <mxPoint x="461" y="917" as="sourcePoint"/>
                        <mxPoint x="621" y="917" as="targetPoint"/>
                    </mxGeometry>
                </mxCell>
                <mxCell id="262" value="1" style="resizable=0;html=1;align=right;verticalAlign=bottom;rounded=1;shadow=0;sketch=0;fontSize=10;" connectable="0" vertex="1" parent="261">
                    <mxGeometry x="1" relative="1" as="geometry">
                        <mxPoint x="-94" y="-49" as="offset"/>
                    </mxGeometry>
                </mxCell>
                <mxCell id="263" value="" style="endArrow=none;html=1;rounded=0;strokeColor=default;fontSize=10;entryX=0;entryY=0;entryDx=0;entryDy=0;exitX=1;exitY=1;exitDx=0;exitDy=0;" edge="1" parent="1" source="260" target="252">
                    <mxGeometry relative="1" as="geometry">
                        <mxPoint x="368.5" y="813" as="sourcePoint"/>
                        <mxPoint x="528.5" y="813" as="targetPoint"/>
                    </mxGeometry>
                </mxCell>
                <mxCell id="264" value="N" style="resizable=0;html=1;align=right;verticalAlign=bottom;rounded=1;shadow=0;sketch=0;fontSize=10;" connectable="0" vertex="1" parent="263">
                    <mxGeometry x="1" relative="1" as="geometry">
                        <mxPoint x="13" y="-7" as="offset"/>
                    </mxGeometry>
                </mxCell>
                <mxCell id="265" value="Orders are shipped according &lt;br&gt;to the post code of&lt;br&gt;the delivery address" style="text;html=1;align=center;verticalAlign=middle;resizable=0;points=[];autosize=1;strokeColor=none;fillColor=none;" vertex="1" parent="1">
                    <mxGeometry x="554" y="794.5" width="182" height="55" as="geometry"/>
                </mxCell>
            </root>
        </mxGraphModel>
    </diagram>
</mxfile>